<mxfile host="Electron" agent="Mozilla/5.0 (Windows NT 10.0; Win64; x64) AppleWebKit/537.36 (KHTML, like Gecko) draw.io/26.0.9 Chrome/128.0.6613.186 Electron/32.2.5 Safari/537.36" version="26.0.9">
  <diagram name="Page-1" id="2YBvvXClWsGukQMizWep">
    <mxGraphModel dx="2748" dy="-238" grid="0" gridSize="10" guides="1" tooltips="1" connect="1" arrows="1" fold="1" page="0" pageScale="1" pageWidth="850" pageHeight="1100" math="0" shadow="0">
      <root>
        <mxCell id="0" />
        <mxCell id="1" parent="0" />
        <mxCell id="0rzWzN3eRyqx4ulNen9h-58" value="Post Exit" style="rounded=0;whiteSpace=wrap;html=1;horizontal=0;align=center;verticalAlign=top;fillColor=light-dark(#CCFFCC,var(--ge-dark-color, #121212));strokeColor=light-dark(#000000,#FFFFFF);fontStyle=1;fontSize=15;strokeWidth=2;" parent="1" vertex="1">
          <mxGeometry x="1061" y="1862.5" width="336" height="224.5" as="geometry" />
        </mxCell>
        <mxCell id="0rzWzN3eRyqx4ulNen9h-57" value="Trace Circle(L)2" style="rounded=0;whiteSpace=wrap;html=1;horizontal=0;align=center;verticalAlign=top;fillColor=light-dark(#CCFFCC,var(--ge-dark-color, #121212));strokeColor=light-dark(#000000,#FFFFFF);fontStyle=1;fontSize=15;strokeWidth=2;" parent="1" vertex="1">
          <mxGeometry x="686" y="1863" width="376" height="224" as="geometry" />
        </mxCell>
        <mxCell id="0rzWzN3eRyqx4ulNen9h-56" value="Cross2" style="rounded=0;whiteSpace=wrap;html=1;horizontal=0;align=center;verticalAlign=top;fillColor=light-dark(#FFCCCC,var(--ge-dark-color, #121212));strokeColor=light-dark(#000000,#FFFFFF);fontStyle=1;fontSize=15;strokeWidth=2;" parent="1" vertex="1">
          <mxGeometry x="686" y="1639" width="378" height="224" as="geometry" />
        </mxCell>
        <mxCell id="0rzWzN3eRyqx4ulNen9h-50" value="&lt;div&gt;Turning&lt;/div&gt;Point1" style="rounded=0;whiteSpace=wrap;html=1;horizontal=0;align=center;verticalAlign=top;fillColor=light-dark(#FFCC99,var(--ge-dark-color, #121212));strokeColor=light-dark(#000000,#FFFFFF);fontStyle=1;fontSize=15;strokeWidth=2;" parent="1" vertex="1">
          <mxGeometry x="-456" y="1863" width="382" height="224" as="geometry" />
        </mxCell>
        <mxCell id="kD3-Drgtkmj37213V6Fg-55" value="Trace Circle (S)" style="rounded=0;whiteSpace=wrap;html=1;horizontal=0;align=center;verticalAlign=top;fillColor=light-dark(#CCFFCC,var(--ge-dark-color, #121212));strokeColor=light-dark(#000000,#FFFFFF);fontStyle=1;fontSize=15;strokeWidth=2;" parent="1" vertex="1">
          <mxGeometry x="305" y="1859.5" width="381" height="227.5" as="geometry" />
        </mxCell>
        <mxCell id="kD3-Drgtkmj37213V6Fg-52" value="Search Circle" style="rounded=0;whiteSpace=wrap;html=1;horizontal=0;align=center;verticalAlign=top;fillColor=light-dark(#FFCCCC,var(--ge-dark-color, #121212));strokeColor=light-dark(#000000,#FFFFFF);fontStyle=1;fontSize=15;strokeWidth=2;" parent="1" vertex="1">
          <mxGeometry x="-74" y="1639" width="379" height="224" as="geometry" />
        </mxCell>
        <mxCell id="0rzWzN3eRyqx4ulNen9h-2" value="&lt;div&gt;Turning&lt;/div&gt;Point3" style="rounded=0;whiteSpace=wrap;html=1;horizontal=0;align=center;verticalAlign=top;fillColor=light-dark(#FFCC99,var(--ge-dark-color, #121212));strokeColor=light-dark(#000000,#FFFFFF);fontStyle=1;fontSize=15;strokeWidth=2;" parent="1" vertex="1">
          <mxGeometry x="686" y="1387" width="378" height="252" as="geometry" />
        </mxCell>
        <mxCell id="0rzWzN3eRyqx4ulNen9h-3" value="&lt;div&gt;Turning&lt;/div&gt;Point3" style="rounded=0;whiteSpace=wrap;html=1;horizontal=0;align=center;verticalAlign=top;fillColor=light-dark(#FFCC99,var(--ge-dark-color, #121212));strokeColor=light-dark(#000000,#FFFFFF);fontStyle=1;fontSize=15;strokeWidth=2;" parent="1" vertex="1">
          <mxGeometry x="1064" y="1387" width="333" height="252" as="geometry" />
        </mxCell>
        <mxCell id="0rzWzN3eRyqx4ulNen9h-1" value="&lt;div&gt;Turning&lt;/div&gt;Point2" style="rounded=0;whiteSpace=wrap;html=1;horizontal=0;align=center;verticalAlign=top;fillColor=light-dark(#FFCC99,var(--ge-dark-color, #121212));strokeColor=light-dark(#000000,#FFFFFF);fontStyle=1;fontSize=15;strokeWidth=2;" parent="1" vertex="1">
          <mxGeometry x="305" y="1387" width="381" height="252" as="geometry" />
        </mxCell>
        <mxCell id="kD3-Drgtkmj37213V6Fg-36" value="Entry" style="rounded=0;whiteSpace=wrap;html=1;horizontal=0;align=center;verticalAlign=top;fillColor=light-dark(#CCCCFF,var(--ge-dark-color, #121212));strokeColor=light-dark(#000000,#FFFFFF);fontStyle=1;fontSize=15;strokeWidth=2;" parent="1" vertex="1">
          <mxGeometry x="-76" y="1387" width="381" height="252" as="geometry" />
        </mxCell>
        <mxCell id="kD3-Drgtkmj37213V6Fg-25" value="Pre Entry(B&lt;span style=&quot;background-color: transparent; color: light-dark(rgb(0, 0, 0), rgb(255, 255, 255));&quot;&gt;lue)&lt;/span&gt;" style="rounded=0;whiteSpace=wrap;html=1;horizontal=0;align=center;verticalAlign=top;fillColor=light-dark(#CCFFCC,var(--ge-dark-color, #121212));strokeColor=light-dark(#000000,#FFFFFF);fontStyle=1;fontSize=15;strokeWidth=2;" parent="1" vertex="1">
          <mxGeometry x="-456" y="1640" width="382" height="223" as="geometry" />
        </mxCell>
        <mxCell id="kD3-Drgtkmj37213V6Fg-4" value="Pre Entry(B&lt;span style=&quot;background-color: transparent; color: light-dark(rgb(0, 0, 0), rgb(255, 255, 255));&quot;&gt;lack)&lt;/span&gt;" style="rounded=0;whiteSpace=wrap;html=1;horizontal=0;align=center;verticalAlign=top;fillColor=light-dark(#CCFFCC,var(--ge-dark-color, #121212));strokeColor=light-dark(#000000,#FFFFFF);fontStyle=1;fontSize=15;strokeWidth=2;" parent="1" vertex="1">
          <mxGeometry x="-456" y="1387" width="382" height="253" as="geometry" />
        </mxCell>
        <mxCell id="kD3-Drgtkmj37213V6Fg-15" style="edgeStyle=orthogonalEdgeStyle;rounded=0;orthogonalLoop=1;jettySize=auto;html=1;entryX=0.5;entryY=0;entryDx=0;entryDy=0;exitX=0.495;exitY=0.845;exitDx=0;exitDy=0;exitPerimeter=0;" parent="1" source="kD3-Drgtkmj37213V6Fg-1" target="kD3-Drgtkmj37213V6Fg-8" edge="1">
          <mxGeometry relative="1" as="geometry" />
        </mxCell>
        <mxCell id="kD3-Drgtkmj37213V6Fg-1" value="" style="ellipse;html=1;shape=startState;fillColor=#000000;strokeColor=#000000;" parent="1" vertex="1">
          <mxGeometry x="-243" y="1390" width="30" height="30" as="geometry" />
        </mxCell>
        <mxCell id="kD3-Drgtkmj37213V6Fg-8" value="ライントレース走行" style="rounded=1;whiteSpace=wrap;html=1;fontSize=16;" parent="1" vertex="1">
          <mxGeometry x="-288" y="1428" width="120" height="40" as="geometry" />
        </mxCell>
        <mxCell id="kD3-Drgtkmj37213V6Fg-21" style="edgeStyle=orthogonalEdgeStyle;rounded=0;orthogonalLoop=1;jettySize=auto;html=1;entryX=0;entryY=0.5;entryDx=0;entryDy=0;exitX=0.5;exitY=0.003;exitDx=0;exitDy=0;exitPerimeter=0;" parent="1" source="kD3-Drgtkmj37213V6Fg-11" target="kD3-Drgtkmj37213V6Fg-8" edge="1">
          <mxGeometry relative="1" as="geometry">
            <mxPoint x="-228.02165131895094" y="1509.33" as="sourcePoint" />
            <mxPoint x="-288" y="1454.67" as="targetPoint" />
            <Array as="points">
              <mxPoint x="-358" y="1508" />
              <mxPoint x="-358" y="1448" />
            </Array>
          </mxGeometry>
        </mxCell>
        <mxCell id="kD3-Drgtkmj37213V6Fg-32" style="edgeStyle=orthogonalEdgeStyle;rounded=0;orthogonalLoop=1;jettySize=auto;html=1;entryX=0.5;entryY=0;entryDx=0;entryDy=0;" parent="1" source="kD3-Drgtkmj37213V6Fg-11" target="kD3-Drgtkmj37213V6Fg-24" edge="1">
          <mxGeometry relative="1" as="geometry" />
        </mxCell>
        <mxCell id="kD3-Drgtkmj37213V6Fg-11" value="" style="html=1;whiteSpace=wrap;aspect=fixed;shape=isoRectangle;rotation=90;direction=west;" parent="1" vertex="1">
          <mxGeometry x="-244.67000000000002" y="1498" width="33.34" height="20" as="geometry" />
        </mxCell>
        <mxCell id="kD3-Drgtkmj37213V6Fg-20" style="edgeStyle=orthogonalEdgeStyle;rounded=0;orthogonalLoop=1;jettySize=auto;html=1;entryX=1.03;entryY=0.503;entryDx=0;entryDy=0;entryPerimeter=0;" parent="1" source="kD3-Drgtkmj37213V6Fg-8" target="kD3-Drgtkmj37213V6Fg-11" edge="1">
          <mxGeometry relative="1" as="geometry" />
        </mxCell>
        <mxCell id="kD3-Drgtkmj37213V6Fg-22" value="[区間①終了条件未達成]" style="text;html=1;align=center;verticalAlign=middle;whiteSpace=wrap;rounded=0;fontSize=14;" parent="1" vertex="1">
          <mxGeometry x="-393" y="1508" width="150" height="20" as="geometry" />
        </mxCell>
        <mxCell id="kD3-Drgtkmj37213V6Fg-23" value="[区間①終了条件達成]" style="text;html=1;align=center;verticalAlign=middle;whiteSpace=wrap;rounded=0;fontSize=14;strokeColor=#CCFFCC;fillColor=light-dark(#CCFFCC,var(--ge-dark-color, #121212));" parent="1" vertex="1">
          <mxGeometry x="-303" y="1548" width="150" height="20" as="geometry" />
        </mxCell>
        <mxCell id="kD3-Drgtkmj37213V6Fg-31" style="edgeStyle=orthogonalEdgeStyle;rounded=0;orthogonalLoop=1;jettySize=auto;html=1;entryX=0.5;entryY=0;entryDx=0;entryDy=0;" parent="1" source="kD3-Drgtkmj37213V6Fg-24" target="kD3-Drgtkmj37213V6Fg-26" edge="1">
          <mxGeometry relative="1" as="geometry" />
        </mxCell>
        <mxCell id="kD3-Drgtkmj37213V6Fg-24" value="区間切り替え" style="rounded=1;whiteSpace=wrap;html=1;fontSize=16;" parent="1" vertex="1">
          <mxGeometry x="-288" y="1588" width="120" height="40" as="geometry" />
        </mxCell>
        <mxCell id="kD3-Drgtkmj37213V6Fg-26" value="ライントレース走行" style="rounded=1;whiteSpace=wrap;html=1;fontSize=16;" parent="1" vertex="1">
          <mxGeometry x="-288" y="1656.5" width="120" height="40" as="geometry" />
        </mxCell>
        <mxCell id="kD3-Drgtkmj37213V6Fg-28" style="edgeStyle=orthogonalEdgeStyle;rounded=0;orthogonalLoop=1;jettySize=auto;html=1;entryX=0;entryY=0.5;entryDx=0;entryDy=0;exitX=0.51;exitY=0.003;exitDx=0;exitDy=0;exitPerimeter=0;" parent="1" source="kD3-Drgtkmj37213V6Fg-29" edge="1">
          <mxGeometry relative="1" as="geometry">
            <mxPoint x="-237.93999999999994" y="1716.5" as="sourcePoint" />
            <mxPoint x="-288" y="1676.5" as="targetPoint" />
            <Array as="points">
              <mxPoint x="-358" y="1736.5" />
              <mxPoint x="-358" y="1676.5" />
            </Array>
          </mxGeometry>
        </mxCell>
        <mxCell id="0rzWzN3eRyqx4ulNen9h-52" style="edgeStyle=orthogonalEdgeStyle;rounded=0;orthogonalLoop=1;jettySize=auto;html=1;entryX=0.5;entryY=0;entryDx=0;entryDy=0;" parent="1" source="kD3-Drgtkmj37213V6Fg-27" target="kD3-Drgtkmj37213V6Fg-72" edge="1">
          <mxGeometry relative="1" as="geometry" />
        </mxCell>
        <mxCell id="kD3-Drgtkmj37213V6Fg-27" value="区間切り替え" style="rounded=1;whiteSpace=wrap;html=1;fontSize=16;" parent="1" vertex="1">
          <mxGeometry x="-288" y="1806.5" width="120" height="40" as="geometry" />
        </mxCell>
        <mxCell id="kD3-Drgtkmj37213V6Fg-35" style="edgeStyle=orthogonalEdgeStyle;rounded=0;orthogonalLoop=1;jettySize=auto;html=1;entryX=0.5;entryY=0;entryDx=0;entryDy=0;" parent="1" source="kD3-Drgtkmj37213V6Fg-29" target="kD3-Drgtkmj37213V6Fg-27" edge="1">
          <mxGeometry relative="1" as="geometry" />
        </mxCell>
        <mxCell id="kD3-Drgtkmj37213V6Fg-29" value="" style="html=1;whiteSpace=wrap;aspect=fixed;shape=isoRectangle;rotation=90;direction=west;" parent="1" vertex="1">
          <mxGeometry x="-244.67000000000002" y="1726.5" width="33.34" height="20" as="geometry" />
        </mxCell>
        <mxCell id="kD3-Drgtkmj37213V6Fg-30" style="edgeStyle=orthogonalEdgeStyle;rounded=0;orthogonalLoop=1;jettySize=auto;html=1;entryX=0.95;entryY=0.5;entryDx=0;entryDy=0;entryPerimeter=0;" parent="1" source="kD3-Drgtkmj37213V6Fg-26" target="kD3-Drgtkmj37213V6Fg-29" edge="1">
          <mxGeometry relative="1" as="geometry" />
        </mxCell>
        <mxCell id="kD3-Drgtkmj37213V6Fg-33" value="[区間②終了条件未達成]" style="text;html=1;align=center;verticalAlign=middle;whiteSpace=wrap;rounded=0;fontSize=14;" parent="1" vertex="1">
          <mxGeometry x="-393" y="1741.5" width="150" height="20" as="geometry" />
        </mxCell>
        <mxCell id="kD3-Drgtkmj37213V6Fg-34" value="[区間②終了条件達成]" style="text;html=1;align=center;verticalAlign=middle;whiteSpace=wrap;rounded=0;fontSize=14;strokeColor=#CCFFCC;fillColor=light-dark(#CCFFCC,var(--ge-dark-color, #121212));" parent="1" vertex="1">
          <mxGeometry x="-298" y="1766.5" width="150" height="20" as="geometry" />
        </mxCell>
        <mxCell id="kD3-Drgtkmj37213V6Fg-41" value="旋回走行" style="rounded=1;whiteSpace=wrap;html=1;fontSize=16;" parent="1" vertex="1">
          <mxGeometry x="90" y="1420" width="120" height="40" as="geometry" />
        </mxCell>
        <mxCell id="0rzWzN3eRyqx4ulNen9h-55" style="edgeStyle=orthogonalEdgeStyle;rounded=0;orthogonalLoop=1;jettySize=auto;html=1;" parent="1" source="kD3-Drgtkmj37213V6Fg-42" target="kD3-Drgtkmj37213V6Fg-62" edge="1">
          <mxGeometry relative="1" as="geometry" />
        </mxCell>
        <mxCell id="kD3-Drgtkmj37213V6Fg-42" value="区間切り替え" style="rounded=1;whiteSpace=wrap;html=1;fontSize=16;" parent="1" vertex="1">
          <mxGeometry x="90" y="1580" width="120" height="40" as="geometry" />
        </mxCell>
        <mxCell id="kD3-Drgtkmj37213V6Fg-48" style="edgeStyle=orthogonalEdgeStyle;rounded=0;orthogonalLoop=1;jettySize=auto;html=1;" parent="1" source="kD3-Drgtkmj37213V6Fg-43" target="kD3-Drgtkmj37213V6Fg-42" edge="1">
          <mxGeometry relative="1" as="geometry" />
        </mxCell>
        <mxCell id="kD3-Drgtkmj37213V6Fg-43" value="" style="html=1;whiteSpace=wrap;aspect=fixed;shape=isoRectangle;rotation=90;direction=west;" parent="1" vertex="1">
          <mxGeometry x="133.32999999999998" y="1490" width="33.34" height="20" as="geometry" />
        </mxCell>
        <mxCell id="kD3-Drgtkmj37213V6Fg-47" style="edgeStyle=orthogonalEdgeStyle;rounded=0;orthogonalLoop=1;jettySize=auto;html=1;entryX=0.922;entryY=0.498;entryDx=0;entryDy=0;entryPerimeter=0;" parent="1" source="kD3-Drgtkmj37213V6Fg-41" target="kD3-Drgtkmj37213V6Fg-43" edge="1">
          <mxGeometry relative="1" as="geometry" />
        </mxCell>
        <mxCell id="kD3-Drgtkmj37213V6Fg-50" value="[区間④終了条件達成]" style="text;html=1;align=center;verticalAlign=middle;whiteSpace=wrap;rounded=0;fontSize=14;strokeColor=#CCCCFF;fillColor=light-dark(#CCCCFF,var(--ge-dark-color, #121212));" parent="1" vertex="1">
          <mxGeometry x="75" y="1535" width="150" height="20" as="geometry" />
        </mxCell>
        <mxCell id="kD3-Drgtkmj37213V6Fg-51" value="[区間④終了条件未達成]" style="text;html=1;align=center;verticalAlign=middle;whiteSpace=wrap;rounded=0;fontSize=14;" parent="1" vertex="1">
          <mxGeometry x="-15" y="1505" width="150" height="20" as="geometry" />
        </mxCell>
        <mxCell id="kD3-Drgtkmj37213V6Fg-53" value="Trace Circle(L)1" style="rounded=0;whiteSpace=wrap;html=1;horizontal=0;align=center;verticalAlign=top;fillColor=light-dark(#CCFFCC,var(--ge-dark-color, #121212));strokeColor=light-dark(#000000,#FFFFFF);fontStyle=1;fontSize=15;strokeWidth=2;" parent="1" vertex="1">
          <mxGeometry x="-74" y="1863" width="379" height="224" as="geometry" />
        </mxCell>
        <mxCell id="kD3-Drgtkmj37213V6Fg-54" value="Cross1" style="rounded=0;whiteSpace=wrap;html=1;horizontal=0;align=center;verticalAlign=top;fillColor=light-dark(#FFCCCC,var(--ge-dark-color, #121212));strokeColor=light-dark(#000000,#FFFFFF);fontStyle=1;fontSize=15;strokeWidth=2;" parent="1" vertex="1">
          <mxGeometry x="305" y="1639" width="381" height="224" as="geometry" />
        </mxCell>
        <mxCell id="kD3-Drgtkmj37213V6Fg-56" value="Exit" style="rounded=0;whiteSpace=wrap;html=1;horizontal=0;align=center;verticalAlign=top;fillColor=light-dark(#FFCCCC,var(--ge-dark-color, #121212));strokeColor=light-dark(#000000,#FFFFFF);fontStyle=1;fontSize=15;strokeWidth=2;" parent="1" vertex="1">
          <mxGeometry x="1062" y="1639" width="335" height="224" as="geometry" />
        </mxCell>
        <mxCell id="kD3-Drgtkmj37213V6Fg-62" value="直進走行" style="rounded=1;whiteSpace=wrap;html=1;fontSize=16;" parent="1" vertex="1">
          <mxGeometry x="90" y="1656" width="120" height="40" as="geometry" />
        </mxCell>
        <mxCell id="0rzWzN3eRyqx4ulNen9h-8" style="edgeStyle=orthogonalEdgeStyle;rounded=0;orthogonalLoop=1;jettySize=auto;html=1;" parent="1" source="kD3-Drgtkmj37213V6Fg-63" target="kD3-Drgtkmj37213V6Fg-71" edge="1">
          <mxGeometry relative="1" as="geometry" />
        </mxCell>
        <mxCell id="kD3-Drgtkmj37213V6Fg-63" value="区間切り替え" style="rounded=1;whiteSpace=wrap;html=1;fontSize=16;" parent="1" vertex="1">
          <mxGeometry x="90" y="1806" width="120" height="40" as="geometry" />
        </mxCell>
        <mxCell id="kD3-Drgtkmj37213V6Fg-64" style="edgeStyle=orthogonalEdgeStyle;rounded=0;orthogonalLoop=1;jettySize=auto;html=1;entryX=0;entryY=0.5;entryDx=0;entryDy=0;exitX=0.51;exitY=0.003;exitDx=0;exitDy=0;exitPerimeter=0;" parent="1" source="kD3-Drgtkmj37213V6Fg-65" edge="1">
          <mxGeometry relative="1" as="geometry">
            <mxPoint x="140.06000000000006" y="1716" as="sourcePoint" />
            <mxPoint x="90" y="1676" as="targetPoint" />
            <Array as="points">
              <mxPoint x="20" y="1736" />
              <mxPoint x="20" y="1676" />
            </Array>
          </mxGeometry>
        </mxCell>
        <mxCell id="kD3-Drgtkmj37213V6Fg-70" style="edgeStyle=orthogonalEdgeStyle;rounded=0;orthogonalLoop=1;jettySize=auto;html=1;entryX=0.5;entryY=0;entryDx=0;entryDy=0;" parent="1" source="kD3-Drgtkmj37213V6Fg-65" target="kD3-Drgtkmj37213V6Fg-63" edge="1">
          <mxGeometry relative="1" as="geometry" />
        </mxCell>
        <mxCell id="kD3-Drgtkmj37213V6Fg-65" value="" style="html=1;whiteSpace=wrap;aspect=fixed;shape=isoRectangle;rotation=90;direction=west;" parent="1" vertex="1">
          <mxGeometry x="133.32999999999993" y="1726" width="33.34" height="20" as="geometry" />
        </mxCell>
        <mxCell id="kD3-Drgtkmj37213V6Fg-66" value="[区間⑤終了条件未達成]" style="text;html=1;align=center;verticalAlign=middle;whiteSpace=wrap;rounded=0;fontSize=14;" parent="1" vertex="1">
          <mxGeometry x="-15" y="1736" width="150" height="20" as="geometry" />
        </mxCell>
        <mxCell id="kD3-Drgtkmj37213V6Fg-67" value="[区間⑤終了条件達成]" style="text;html=1;align=center;verticalAlign=middle;whiteSpace=wrap;rounded=0;fontSize=14;strokeColor=#FFCCCC;fillColor=light-dark(#FFCCCC,var(--ge-dark-color, #121212));" parent="1" vertex="1">
          <mxGeometry x="75" y="1766" width="150" height="20" as="geometry" />
        </mxCell>
        <mxCell id="kD3-Drgtkmj37213V6Fg-69" style="edgeStyle=orthogonalEdgeStyle;rounded=0;orthogonalLoop=1;jettySize=auto;html=1;entryX=0.958;entryY=0.516;entryDx=0;entryDy=0;entryPerimeter=0;" parent="1" source="kD3-Drgtkmj37213V6Fg-62" target="kD3-Drgtkmj37213V6Fg-65" edge="1">
          <mxGeometry relative="1" as="geometry" />
        </mxCell>
        <mxCell id="kD3-Drgtkmj37213V6Fg-71" value="ライントレース&lt;div&gt;走行&lt;/div&gt;" style="rounded=1;whiteSpace=wrap;html=1;fontSize=16;" parent="1" vertex="1">
          <mxGeometry x="90" y="1874.5" width="120" height="40" as="geometry" />
        </mxCell>
        <mxCell id="kD3-Drgtkmj37213V6Fg-72" value="進行方向調整" style="rounded=1;whiteSpace=wrap;html=1;fontSize=16;" parent="1" vertex="1">
          <mxGeometry x="-288" y="1875" width="120" height="40" as="geometry" />
        </mxCell>
        <mxCell id="kD3-Drgtkmj37213V6Fg-73" style="edgeStyle=orthogonalEdgeStyle;rounded=0;orthogonalLoop=1;jettySize=auto;html=1;entryX=0;entryY=0.5;entryDx=0;entryDy=0;exitX=0.51;exitY=0.003;exitDx=0;exitDy=0;exitPerimeter=0;" parent="1" source="kD3-Drgtkmj37213V6Fg-74" edge="1">
          <mxGeometry relative="1" as="geometry">
            <mxPoint x="140.06000000000006" y="1934.5" as="sourcePoint" />
            <mxPoint x="90" y="1894.5" as="targetPoint" />
            <Array as="points">
              <mxPoint x="20" y="1954.5" />
              <mxPoint x="20" y="1894.5" />
            </Array>
          </mxGeometry>
        </mxCell>
        <mxCell id="DjXo14qDJdDYDq_xt4h0-59" style="edgeStyle=orthogonalEdgeStyle;rounded=0;orthogonalLoop=1;jettySize=auto;html=1;" parent="1" source="kD3-Drgtkmj37213V6Fg-74" target="DjXo14qDJdDYDq_xt4h0-58" edge="1">
          <mxGeometry relative="1" as="geometry" />
        </mxCell>
        <mxCell id="kD3-Drgtkmj37213V6Fg-74" value="" style="html=1;whiteSpace=wrap;aspect=fixed;shape=isoRectangle;rotation=90;direction=west;" parent="1" vertex="1">
          <mxGeometry x="133.32999999999993" y="1945" width="33.34" height="20" as="geometry" />
        </mxCell>
        <mxCell id="kD3-Drgtkmj37213V6Fg-75" value="[区間⑥終了条件未達成]" style="text;html=1;align=center;verticalAlign=middle;whiteSpace=wrap;rounded=0;fontSize=14;" parent="1" vertex="1">
          <mxGeometry x="-15" y="1954.5" width="150" height="20" as="geometry" />
        </mxCell>
        <mxCell id="kD3-Drgtkmj37213V6Fg-76" value="直進走行" style="rounded=1;whiteSpace=wrap;html=1;fontSize=16;" parent="1" vertex="1">
          <mxGeometry x="458" y="1656" width="120" height="40" as="geometry" />
        </mxCell>
        <mxCell id="0rzWzN3eRyqx4ulNen9h-69" style="edgeStyle=orthogonalEdgeStyle;rounded=0;orthogonalLoop=1;jettySize=auto;html=1;" parent="1" source="kD3-Drgtkmj37213V6Fg-77" target="kD3-Drgtkmj37213V6Fg-89" edge="1">
          <mxGeometry relative="1" as="geometry" />
        </mxCell>
        <mxCell id="kD3-Drgtkmj37213V6Fg-77" value="区間切り替え" style="rounded=1;whiteSpace=wrap;html=1;fontSize=16;" parent="1" vertex="1">
          <mxGeometry x="458" y="1806" width="120" height="40" as="geometry" />
        </mxCell>
        <mxCell id="kD3-Drgtkmj37213V6Fg-78" style="edgeStyle=orthogonalEdgeStyle;rounded=0;orthogonalLoop=1;jettySize=auto;html=1;entryX=0;entryY=0.5;entryDx=0;entryDy=0;exitX=0.51;exitY=0.003;exitDx=0;exitDy=0;exitPerimeter=0;" parent="1" source="kD3-Drgtkmj37213V6Fg-79" edge="1">
          <mxGeometry relative="1" as="geometry">
            <mxPoint x="508.06000000000006" y="1716" as="sourcePoint" />
            <mxPoint x="458" y="1676" as="targetPoint" />
            <Array as="points">
              <mxPoint x="388" y="1736" />
              <mxPoint x="388" y="1676" />
            </Array>
          </mxGeometry>
        </mxCell>
        <mxCell id="kD3-Drgtkmj37213V6Fg-86" style="edgeStyle=orthogonalEdgeStyle;rounded=0;orthogonalLoop=1;jettySize=auto;html=1;entryX=0.5;entryY=0;entryDx=0;entryDy=0;" parent="1" source="kD3-Drgtkmj37213V6Fg-79" target="kD3-Drgtkmj37213V6Fg-77" edge="1">
          <mxGeometry relative="1" as="geometry" />
        </mxCell>
        <mxCell id="kD3-Drgtkmj37213V6Fg-79" value="" style="html=1;whiteSpace=wrap;aspect=fixed;shape=isoRectangle;rotation=90;direction=west;" parent="1" vertex="1">
          <mxGeometry x="501.3299999999999" y="1726" width="33.34" height="20" as="geometry" />
        </mxCell>
        <mxCell id="kD3-Drgtkmj37213V6Fg-80" value="[区間⑧終了条件未達成]" style="text;html=1;align=center;verticalAlign=middle;whiteSpace=wrap;rounded=0;fontSize=14;" parent="1" vertex="1">
          <mxGeometry x="353" y="1736" width="150" height="20" as="geometry" />
        </mxCell>
        <mxCell id="kD3-Drgtkmj37213V6Fg-82" style="edgeStyle=orthogonalEdgeStyle;rounded=0;orthogonalLoop=1;jettySize=auto;html=1;entryX=0.914;entryY=0.5;entryDx=0;entryDy=0;entryPerimeter=0;" parent="1" source="kD3-Drgtkmj37213V6Fg-71" target="kD3-Drgtkmj37213V6Fg-74" edge="1">
          <mxGeometry relative="1" as="geometry" />
        </mxCell>
        <mxCell id="kD3-Drgtkmj37213V6Fg-85" style="edgeStyle=orthogonalEdgeStyle;rounded=0;orthogonalLoop=1;jettySize=auto;html=1;entryX=0.986;entryY=0.5;entryDx=0;entryDy=0;entryPerimeter=0;" parent="1" source="kD3-Drgtkmj37213V6Fg-76" target="kD3-Drgtkmj37213V6Fg-79" edge="1">
          <mxGeometry relative="1" as="geometry" />
        </mxCell>
        <mxCell id="kD3-Drgtkmj37213V6Fg-87" value="[区間⑧終了条件達成]" style="text;html=1;align=center;verticalAlign=middle;whiteSpace=wrap;rounded=0;fontSize=14;strokeColor=#FFCCCC;fillColor=light-dark(#FFCCCC,var(--ge-dark-color, #121212));" parent="1" vertex="1">
          <mxGeometry x="448" y="1771" width="150" height="20" as="geometry" />
        </mxCell>
        <mxCell id="kD3-Drgtkmj37213V6Fg-88" value="[区間⑥終了条件達成]" style="text;html=1;align=center;verticalAlign=middle;whiteSpace=wrap;rounded=0;fontSize=14;strokeColor=#CCFFCC;fillColor=light-dark(#CCFFCC,var(--ge-dark-color, #121212));" parent="1" vertex="1">
          <mxGeometry x="75" y="1988" width="150" height="20" as="geometry" />
        </mxCell>
        <mxCell id="kD3-Drgtkmj37213V6Fg-89" value="ライントレース走行" style="rounded=1;whiteSpace=wrap;html=1;fontSize=16;" parent="1" vertex="1">
          <mxGeometry x="457.97" y="1875" width="120" height="40" as="geometry" />
        </mxCell>
        <mxCell id="kD3-Drgtkmj37213V6Fg-91" style="edgeStyle=orthogonalEdgeStyle;rounded=0;orthogonalLoop=1;jettySize=auto;html=1;entryX=0;entryY=0.5;entryDx=0;entryDy=0;exitX=0.51;exitY=0.003;exitDx=0;exitDy=0;exitPerimeter=0;" parent="1" source="kD3-Drgtkmj37213V6Fg-93" edge="1">
          <mxGeometry relative="1" as="geometry">
            <mxPoint x="508.03" y="1935" as="sourcePoint" />
            <mxPoint x="457.97" y="1895" as="targetPoint" />
            <Array as="points">
              <mxPoint x="387.97" y="1955" />
              <mxPoint x="387.97" y="1895" />
            </Array>
          </mxGeometry>
        </mxCell>
        <mxCell id="DjXo14qDJdDYDq_xt4h0-62" style="edgeStyle=orthogonalEdgeStyle;rounded=0;orthogonalLoop=1;jettySize=auto;html=1;" parent="1" source="kD3-Drgtkmj37213V6Fg-93" target="DjXo14qDJdDYDq_xt4h0-61" edge="1">
          <mxGeometry relative="1" as="geometry" />
        </mxCell>
        <mxCell id="kD3-Drgtkmj37213V6Fg-93" value="" style="html=1;whiteSpace=wrap;aspect=fixed;shape=isoRectangle;rotation=90;direction=west;" parent="1" vertex="1">
          <mxGeometry x="501.29999999999995" y="1945" width="33.34" height="20" as="geometry" />
        </mxCell>
        <mxCell id="DjXo14qDJdDYDq_xt4h0-3" style="edgeStyle=orthogonalEdgeStyle;rounded=0;orthogonalLoop=1;jettySize=auto;html=1;entryX=1.01;entryY=0.5;entryDx=0;entryDy=0;entryPerimeter=0;" parent="1" source="kD3-Drgtkmj37213V6Fg-89" target="kD3-Drgtkmj37213V6Fg-93" edge="1">
          <mxGeometry relative="1" as="geometry" />
        </mxCell>
        <mxCell id="DjXo14qDJdDYDq_xt4h0-5" value="[区間⑨終了条件未達成]" style="text;html=1;align=center;verticalAlign=middle;whiteSpace=wrap;rounded=0;fontSize=14;" parent="1" vertex="1">
          <mxGeometry x="360" y="1955" width="150" height="20" as="geometry" />
        </mxCell>
        <mxCell id="DjXo14qDJdDYDq_xt4h0-6" value="[区間⑨終了条件達成]" style="text;html=1;align=center;verticalAlign=middle;whiteSpace=wrap;rounded=0;fontSize=14;strokeColor=#CCFFCC;fillColor=light-dark(#CCFFCC,var(--ge-dark-color, #121212));" parent="1" vertex="1">
          <mxGeometry x="438" y="1990" width="150" height="20" as="geometry" />
        </mxCell>
        <mxCell id="DjXo14qDJdDYDq_xt4h0-9" value="直進走行" style="rounded=1;whiteSpace=wrap;html=1;fontSize=16;" parent="1" vertex="1">
          <mxGeometry x="839.6999999999999" y="1651" width="120" height="40" as="geometry" />
        </mxCell>
        <mxCell id="0rzWzN3eRyqx4ulNen9h-37" style="edgeStyle=orthogonalEdgeStyle;rounded=0;orthogonalLoop=1;jettySize=auto;html=1;" parent="1" source="DjXo14qDJdDYDq_xt4h0-10" target="DjXo14qDJdDYDq_xt4h0-20" edge="1">
          <mxGeometry relative="1" as="geometry" />
        </mxCell>
        <mxCell id="DjXo14qDJdDYDq_xt4h0-10" value="区間切り替え" style="rounded=1;whiteSpace=wrap;html=1;fontSize=16;" parent="1" vertex="1">
          <mxGeometry x="839.6999999999999" y="1801" width="120" height="40" as="geometry" />
        </mxCell>
        <mxCell id="DjXo14qDJdDYDq_xt4h0-11" style="edgeStyle=orthogonalEdgeStyle;rounded=0;orthogonalLoop=1;jettySize=auto;html=1;entryX=0;entryY=0.5;entryDx=0;entryDy=0;exitX=0.51;exitY=0.003;exitDx=0;exitDy=0;exitPerimeter=0;" parent="1" source="DjXo14qDJdDYDq_xt4h0-12" edge="1">
          <mxGeometry relative="1" as="geometry">
            <mxPoint x="889.7299999999999" y="1711" as="sourcePoint" />
            <mxPoint x="839.67" y="1671" as="targetPoint" />
            <Array as="points">
              <mxPoint x="769.6700000000001" y="1731" />
              <mxPoint x="769.6700000000001" y="1671" />
            </Array>
          </mxGeometry>
        </mxCell>
        <mxCell id="DjXo14qDJdDYDq_xt4h0-12" value="" style="html=1;whiteSpace=wrap;aspect=fixed;shape=isoRectangle;rotation=90;direction=west;" parent="1" vertex="1">
          <mxGeometry x="882.9999999999999" y="1721" width="33.34" height="20" as="geometry" />
        </mxCell>
        <mxCell id="DjXo14qDJdDYDq_xt4h0-13" value="[区間⑪終了条件未達成]" style="text;html=1;align=center;verticalAlign=middle;whiteSpace=wrap;rounded=0;fontSize=14;" parent="1" vertex="1">
          <mxGeometry x="733" y="1731" width="150" height="20" as="geometry" />
        </mxCell>
        <mxCell id="DjXo14qDJdDYDq_xt4h0-16" style="edgeStyle=orthogonalEdgeStyle;rounded=0;orthogonalLoop=1;jettySize=auto;html=1;entryX=1.04;entryY=0.502;entryDx=0;entryDy=0;entryPerimeter=0;" parent="1" source="DjXo14qDJdDYDq_xt4h0-9" target="DjXo14qDJdDYDq_xt4h0-12" edge="1">
          <mxGeometry relative="1" as="geometry" />
        </mxCell>
        <mxCell id="DjXo14qDJdDYDq_xt4h0-17" style="edgeStyle=orthogonalEdgeStyle;rounded=0;orthogonalLoop=1;jettySize=auto;html=1;entryX=0.5;entryY=-0.075;entryDx=0;entryDy=0;entryPerimeter=0;" parent="1" source="DjXo14qDJdDYDq_xt4h0-12" target="DjXo14qDJdDYDq_xt4h0-10" edge="1">
          <mxGeometry relative="1" as="geometry" />
        </mxCell>
        <mxCell id="DjXo14qDJdDYDq_xt4h0-14" value="[区間⑪終了条件達成]" style="text;html=1;align=center;verticalAlign=middle;whiteSpace=wrap;rounded=0;fontSize=14;strokeColor=#FFCCCC;fillColor=light-dark(#FFCCCC,var(--ge-dark-color, #121212));" parent="1" vertex="1">
          <mxGeometry x="824.6999999999999" y="1766" width="150" height="20" as="geometry" />
        </mxCell>
        <mxCell id="DjXo14qDJdDYDq_xt4h0-19" value="走行体" style="rounded=0;whiteSpace=wrap;html=1;strokeWidth=2;fillColor=light-dark(#FFFFCC,var(--ge-dark-color, #121212));fontSize=16;fontStyle=1" parent="1" vertex="1">
          <mxGeometry x="-456" y="1367" width="1854.5" height="20" as="geometry" />
        </mxCell>
        <mxCell id="DjXo14qDJdDYDq_xt4h0-20" value="ライントレース&lt;div&gt;走行&lt;/div&gt;" style="rounded=1;whiteSpace=wrap;html=1;fontSize=16;" parent="1" vertex="1">
          <mxGeometry x="839.6999999999999" y="1878" width="120" height="40" as="geometry" />
        </mxCell>
        <mxCell id="DjXo14qDJdDYDq_xt4h0-22" style="edgeStyle=orthogonalEdgeStyle;rounded=0;orthogonalLoop=1;jettySize=auto;html=1;entryX=0;entryY=0.5;entryDx=0;entryDy=0;exitX=0.51;exitY=0.003;exitDx=0;exitDy=0;exitPerimeter=0;" parent="1" source="DjXo14qDJdDYDq_xt4h0-23" edge="1">
          <mxGeometry relative="1" as="geometry">
            <mxPoint x="889.7599999999999" y="1938" as="sourcePoint" />
            <mxPoint x="839.6999999999999" y="1898" as="targetPoint" />
            <Array as="points">
              <mxPoint x="769.7" y="1958" />
              <mxPoint x="769.7" y="1898" />
            </Array>
          </mxGeometry>
        </mxCell>
        <mxCell id="DjXo14qDJdDYDq_xt4h0-65" style="edgeStyle=orthogonalEdgeStyle;rounded=0;orthogonalLoop=1;jettySize=auto;html=1;" parent="1" source="DjXo14qDJdDYDq_xt4h0-23" target="DjXo14qDJdDYDq_xt4h0-64" edge="1">
          <mxGeometry relative="1" as="geometry" />
        </mxCell>
        <mxCell id="DjXo14qDJdDYDq_xt4h0-23" value="" style="html=1;whiteSpace=wrap;aspect=fixed;shape=isoRectangle;rotation=90;direction=west;" parent="1" vertex="1">
          <mxGeometry x="883.0299999999999" y="1948" width="33.34" height="20" as="geometry" />
        </mxCell>
        <mxCell id="DjXo14qDJdDYDq_xt4h0-24" value="[区間⑫終了条件未達成]" style="text;html=1;align=center;verticalAlign=middle;whiteSpace=wrap;rounded=0;fontSize=14;" parent="1" vertex="1">
          <mxGeometry x="734.7" y="1958" width="150" height="20" as="geometry" />
        </mxCell>
        <mxCell id="DjXo14qDJdDYDq_xt4h0-25" value="[区間⑫終了条件達成]" style="text;html=1;align=center;verticalAlign=middle;whiteSpace=wrap;rounded=0;fontSize=14;strokeColor=#CCFFCC;fillColor=light-dark(#CCFFCC,var(--ge-dark-color, #121212));" parent="1" vertex="1">
          <mxGeometry x="824.6999999999999" y="1993" width="150" height="20" as="geometry" />
        </mxCell>
        <mxCell id="DjXo14qDJdDYDq_xt4h0-27" style="edgeStyle=orthogonalEdgeStyle;rounded=0;orthogonalLoop=1;jettySize=auto;html=1;entryX=1.035;entryY=0.503;entryDx=0;entryDy=0;entryPerimeter=0;" parent="1" source="DjXo14qDJdDYDq_xt4h0-20" target="DjXo14qDJdDYDq_xt4h0-23" edge="1">
          <mxGeometry relative="1" as="geometry" />
        </mxCell>
        <mxCell id="DjXo14qDJdDYDq_xt4h0-30" value="直進走行" style="rounded=1;whiteSpace=wrap;html=1;fontSize=16;" parent="1" vertex="1">
          <mxGeometry x="1212" y="1651" width="120" height="40" as="geometry" />
        </mxCell>
        <mxCell id="0rzWzN3eRyqx4ulNen9h-73" style="edgeStyle=orthogonalEdgeStyle;rounded=0;orthogonalLoop=1;jettySize=auto;html=1;" parent="1" source="DjXo14qDJdDYDq_xt4h0-31" target="DjXo14qDJdDYDq_xt4h0-39" edge="1">
          <mxGeometry relative="1" as="geometry" />
        </mxCell>
        <mxCell id="DjXo14qDJdDYDq_xt4h0-31" value="区間切り替え" style="rounded=1;whiteSpace=wrap;html=1;fontSize=16;" parent="1" vertex="1">
          <mxGeometry x="1212" y="1801" width="120" height="40" as="geometry" />
        </mxCell>
        <mxCell id="DjXo14qDJdDYDq_xt4h0-32" style="edgeStyle=orthogonalEdgeStyle;rounded=0;orthogonalLoop=1;jettySize=auto;html=1;entryX=0;entryY=0.5;entryDx=0;entryDy=0;exitX=0.51;exitY=0.003;exitDx=0;exitDy=0;exitPerimeter=0;" parent="1" source="DjXo14qDJdDYDq_xt4h0-33" edge="1">
          <mxGeometry relative="1" as="geometry">
            <mxPoint x="1262.06" y="1711" as="sourcePoint" />
            <mxPoint x="1212" y="1671" as="targetPoint" />
            <Array as="points">
              <mxPoint x="1142" y="1731" />
              <mxPoint x="1142" y="1671" />
            </Array>
          </mxGeometry>
        </mxCell>
        <mxCell id="DjXo14qDJdDYDq_xt4h0-38" style="edgeStyle=orthogonalEdgeStyle;rounded=0;orthogonalLoop=1;jettySize=auto;html=1;" parent="1" source="DjXo14qDJdDYDq_xt4h0-33" target="DjXo14qDJdDYDq_xt4h0-31" edge="1">
          <mxGeometry relative="1" as="geometry" />
        </mxCell>
        <mxCell id="DjXo14qDJdDYDq_xt4h0-33" value="" style="html=1;whiteSpace=wrap;aspect=fixed;shape=isoRectangle;rotation=90;direction=west;" parent="1" vertex="1">
          <mxGeometry x="1255.33" y="1721" width="33.34" height="20" as="geometry" />
        </mxCell>
        <mxCell id="DjXo14qDJdDYDq_xt4h0-34" value="[区間⑭&lt;span style=&quot;background-color: transparent; color: light-dark(rgb(0, 0, 0), rgb(255, 255, 255));&quot;&gt;終了条件未達成]&lt;/span&gt;" style="text;html=1;align=center;verticalAlign=middle;whiteSpace=wrap;rounded=0;fontSize=14;" parent="1" vertex="1">
          <mxGeometry x="1107" y="1731" width="150" height="20" as="geometry" />
        </mxCell>
        <mxCell id="DjXo14qDJdDYDq_xt4h0-35" value="[区間⑭終了条件達成]" style="text;html=1;align=center;verticalAlign=middle;whiteSpace=wrap;rounded=0;fontSize=14;strokeColor=#FFCCCC;fillColor=light-dark(#FFCCCC,var(--ge-dark-color, #121212));" parent="1" vertex="1">
          <mxGeometry x="1202" y="1761" width="150" height="20" as="geometry" />
        </mxCell>
        <mxCell id="DjXo14qDJdDYDq_xt4h0-37" style="edgeStyle=orthogonalEdgeStyle;rounded=0;orthogonalLoop=1;jettySize=auto;html=1;entryX=1;entryY=0.499;entryDx=0;entryDy=0;entryPerimeter=0;" parent="1" source="DjXo14qDJdDYDq_xt4h0-30" target="DjXo14qDJdDYDq_xt4h0-33" edge="1">
          <mxGeometry relative="1" as="geometry" />
        </mxCell>
        <mxCell id="DjXo14qDJdDYDq_xt4h0-39" value="ライントレース&lt;div&gt;走行&lt;/div&gt;" style="rounded=1;whiteSpace=wrap;html=1;fontSize=16;" parent="1" vertex="1">
          <mxGeometry x="1212" y="1925" width="120" height="40" as="geometry" />
        </mxCell>
        <mxCell id="DjXo14qDJdDYDq_xt4h0-54" value="" style="shape=sumEllipse;perimeter=ellipsePerimeter;whiteSpace=wrap;html=1;backgroundOutline=1;" parent="1" vertex="1">
          <mxGeometry x="1262" y="1999" width="20" height="20" as="geometry" />
        </mxCell>
        <mxCell id="0rzWzN3eRyqx4ulNen9h-67" style="edgeStyle=orthogonalEdgeStyle;rounded=0;orthogonalLoop=1;jettySize=auto;html=1;entryX=0.5;entryY=0;entryDx=0;entryDy=0;" parent="1" source="DjXo14qDJdDYDq_xt4h0-58" target="0rzWzN3eRyqx4ulNen9h-59" edge="1">
          <mxGeometry relative="1" as="geometry">
            <Array as="points">
              <mxPoint x="254" y="2050" />
              <mxPoint x="254" y="1400" />
              <mxPoint x="518" y="1400" />
            </Array>
          </mxGeometry>
        </mxCell>
        <mxCell id="DjXo14qDJdDYDq_xt4h0-58" value="区間切り替え" style="rounded=1;whiteSpace=wrap;html=1;fontSize=16;" parent="1" vertex="1">
          <mxGeometry x="90" y="2030" width="120" height="40" as="geometry" />
        </mxCell>
        <mxCell id="DjXo14qDJdDYDq_xt4h0-61" value="区間切り替え" style="rounded=1;whiteSpace=wrap;html=1;fontSize=16;" parent="1" vertex="1">
          <mxGeometry x="457.97" y="2027" width="120" height="40" as="geometry" />
        </mxCell>
        <mxCell id="0rzWzN3eRyqx4ulNen9h-45" style="edgeStyle=orthogonalEdgeStyle;rounded=0;orthogonalLoop=1;jettySize=auto;html=1;entryX=0.5;entryY=0;entryDx=0;entryDy=0;" parent="1" source="DjXo14qDJdDYDq_xt4h0-64" target="0rzWzN3eRyqx4ulNen9h-38" edge="1">
          <mxGeometry relative="1" as="geometry">
            <Array as="points">
              <mxPoint x="1018" y="2050" />
              <mxPoint x="1018" y="1404" />
              <mxPoint x="1272" y="1404" />
            </Array>
          </mxGeometry>
        </mxCell>
        <mxCell id="DjXo14qDJdDYDq_xt4h0-64" value="区間切り替え" style="rounded=1;whiteSpace=wrap;html=1;fontSize=16;" parent="1" vertex="1">
          <mxGeometry x="839.6999999999999" y="2030" width="120" height="40" as="geometry" />
        </mxCell>
        <mxCell id="DjXo14qDJdDYDq_xt4h0-71" style="edgeStyle=orthogonalEdgeStyle;rounded=0;orthogonalLoop=1;jettySize=auto;html=1;" parent="1" source="DjXo14qDJdDYDq_xt4h0-39" edge="1">
          <mxGeometry relative="1" as="geometry">
            <mxPoint x="1272" y="1999" as="targetPoint" />
          </mxGeometry>
        </mxCell>
        <mxCell id="0rzWzN3eRyqx4ulNen9h-54" style="edgeStyle=orthogonalEdgeStyle;rounded=0;orthogonalLoop=1;jettySize=auto;html=1;entryX=0.5;entryY=0;entryDx=0;entryDy=0;" parent="1" source="0rzWzN3eRyqx4ulNen9h-9" target="kD3-Drgtkmj37213V6Fg-41" edge="1">
          <mxGeometry relative="1" as="geometry">
            <Array as="points">
              <mxPoint x="-108" y="2053" />
              <mxPoint x="-108" y="1400" />
              <mxPoint x="150" y="1400" />
            </Array>
          </mxGeometry>
        </mxCell>
        <mxCell id="0rzWzN3eRyqx4ulNen9h-9" value="区間切り替え" style="rounded=1;whiteSpace=wrap;html=1;fontSize=16;" parent="1" vertex="1">
          <mxGeometry x="-288" y="2035" width="120" height="40" as="geometry" />
        </mxCell>
        <mxCell id="0rzWzN3eRyqx4ulNen9h-16" style="edgeStyle=orthogonalEdgeStyle;rounded=0;orthogonalLoop=1;jettySize=auto;html=1;entryX=0.5;entryY=0;entryDx=0;entryDy=0;" parent="1" source="0rzWzN3eRyqx4ulNen9h-10" target="0rzWzN3eRyqx4ulNen9h-9" edge="1">
          <mxGeometry relative="1" as="geometry" />
        </mxCell>
        <mxCell id="0rzWzN3eRyqx4ulNen9h-17" style="edgeStyle=orthogonalEdgeStyle;rounded=0;orthogonalLoop=1;jettySize=auto;html=1;entryX=0;entryY=0.5;entryDx=0;entryDy=0;" parent="1" source="0rzWzN3eRyqx4ulNen9h-10" target="kD3-Drgtkmj37213V6Fg-72" edge="1">
          <mxGeometry relative="1" as="geometry">
            <Array as="points">
              <mxPoint x="-352" y="1956" />
              <mxPoint x="-352" y="1895" />
            </Array>
          </mxGeometry>
        </mxCell>
        <mxCell id="0rzWzN3eRyqx4ulNen9h-10" value="" style="html=1;whiteSpace=wrap;aspect=fixed;shape=isoRectangle;rotation=90;direction=west;" parent="1" vertex="1">
          <mxGeometry x="-244.67000000000007" y="1945" width="33.34" height="20" as="geometry" />
        </mxCell>
        <mxCell id="0rzWzN3eRyqx4ulNen9h-11" value="[区間③終了条件達成]" style="text;html=1;align=center;verticalAlign=middle;whiteSpace=wrap;rounded=0;fontSize=14;strokeColor=#FFCC99;fillColor=light-dark(#FFCC99,var(--ge-dark-color, #121212));" parent="1" vertex="1">
          <mxGeometry x="-301.33" y="1990" width="150" height="20" as="geometry" />
        </mxCell>
        <mxCell id="0rzWzN3eRyqx4ulNen9h-13" value="[区間③終了条件未達成]" style="text;html=1;align=center;verticalAlign=middle;whiteSpace=wrap;rounded=0;fontSize=14;" parent="1" vertex="1">
          <mxGeometry x="-393" y="1960.5" width="150" height="20" as="geometry" />
        </mxCell>
        <mxCell id="0rzWzN3eRyqx4ulNen9h-14" style="edgeStyle=orthogonalEdgeStyle;rounded=0;orthogonalLoop=1;jettySize=auto;html=1;entryX=0.962;entryY=0.496;entryDx=0;entryDy=0;entryPerimeter=0;" parent="1" source="kD3-Drgtkmj37213V6Fg-72" target="0rzWzN3eRyqx4ulNen9h-10" edge="1">
          <mxGeometry relative="1" as="geometry" />
        </mxCell>
        <mxCell id="0rzWzN3eRyqx4ulNen9h-27" value="進行方向調整" style="rounded=1;whiteSpace=wrap;html=1;fontSize=16;" parent="1" vertex="1">
          <mxGeometry x="839.97" y="1420" width="120" height="40" as="geometry" />
        </mxCell>
        <mxCell id="0rzWzN3eRyqx4ulNen9h-71" style="edgeStyle=orthogonalEdgeStyle;rounded=0;orthogonalLoop=1;jettySize=auto;html=1;" parent="1" source="0rzWzN3eRyqx4ulNen9h-28" target="DjXo14qDJdDYDq_xt4h0-9" edge="1">
          <mxGeometry relative="1" as="geometry" />
        </mxCell>
        <mxCell id="0rzWzN3eRyqx4ulNen9h-28" value="区間切り替え" style="rounded=1;whiteSpace=wrap;html=1;fontSize=16;" parent="1" vertex="1">
          <mxGeometry x="839.97" y="1580" width="120" height="40" as="geometry" />
        </mxCell>
        <mxCell id="0rzWzN3eRyqx4ulNen9h-29" style="edgeStyle=orthogonalEdgeStyle;rounded=0;orthogonalLoop=1;jettySize=auto;html=1;entryX=0.5;entryY=0;entryDx=0;entryDy=0;" parent="1" source="0rzWzN3eRyqx4ulNen9h-31" target="0rzWzN3eRyqx4ulNen9h-28" edge="1">
          <mxGeometry relative="1" as="geometry" />
        </mxCell>
        <mxCell id="0rzWzN3eRyqx4ulNen9h-30" style="edgeStyle=orthogonalEdgeStyle;rounded=0;orthogonalLoop=1;jettySize=auto;html=1;entryX=0;entryY=0.5;entryDx=0;entryDy=0;" parent="1" source="0rzWzN3eRyqx4ulNen9h-31" target="0rzWzN3eRyqx4ulNen9h-27" edge="1">
          <mxGeometry relative="1" as="geometry">
            <Array as="points">
              <mxPoint x="775.97" y="1501" />
              <mxPoint x="775.97" y="1440" />
            </Array>
          </mxGeometry>
        </mxCell>
        <mxCell id="0rzWzN3eRyqx4ulNen9h-31" value="" style="html=1;whiteSpace=wrap;aspect=fixed;shape=isoRectangle;rotation=90;direction=west;" parent="1" vertex="1">
          <mxGeometry x="883.3" y="1490" width="33.34" height="20" as="geometry" />
        </mxCell>
        <mxCell id="0rzWzN3eRyqx4ulNen9h-32" value="[区間⑩終了条件達成]" style="text;html=1;align=center;verticalAlign=middle;whiteSpace=wrap;rounded=0;fontSize=14;strokeColor=#FFCC99;fillColor=light-dark(#FFCC99,var(--ge-dark-color, #121212));" parent="1" vertex="1">
          <mxGeometry x="827.6700000000001" y="1535" width="150" height="20" as="geometry" />
        </mxCell>
        <mxCell id="0rzWzN3eRyqx4ulNen9h-33" value="[区間⑩終了条件未達成]" style="text;html=1;align=center;verticalAlign=middle;whiteSpace=wrap;rounded=0;fontSize=14;" parent="1" vertex="1">
          <mxGeometry x="746" y="1505.5" width="150" height="20" as="geometry" />
        </mxCell>
        <mxCell id="0rzWzN3eRyqx4ulNen9h-34" style="edgeStyle=orthogonalEdgeStyle;rounded=0;orthogonalLoop=1;jettySize=auto;html=1;entryX=0.962;entryY=0.496;entryDx=0;entryDy=0;entryPerimeter=0;" parent="1" source="0rzWzN3eRyqx4ulNen9h-27" target="0rzWzN3eRyqx4ulNen9h-31" edge="1">
          <mxGeometry relative="1" as="geometry" />
        </mxCell>
        <mxCell id="0rzWzN3eRyqx4ulNen9h-38" value="進行方向調整" style="rounded=1;whiteSpace=wrap;html=1;fontSize=16;" parent="1" vertex="1">
          <mxGeometry x="1211.5" y="1424" width="120" height="40" as="geometry" />
        </mxCell>
        <mxCell id="0rzWzN3eRyqx4ulNen9h-72" style="edgeStyle=orthogonalEdgeStyle;rounded=0;orthogonalLoop=1;jettySize=auto;html=1;" parent="1" source="0rzWzN3eRyqx4ulNen9h-39" target="DjXo14qDJdDYDq_xt4h0-30" edge="1">
          <mxGeometry relative="1" as="geometry" />
        </mxCell>
        <mxCell id="0rzWzN3eRyqx4ulNen9h-39" value="区間切り替え" style="rounded=1;whiteSpace=wrap;html=1;fontSize=16;" parent="1" vertex="1">
          <mxGeometry x="1211.5" y="1584" width="120" height="40" as="geometry" />
        </mxCell>
        <mxCell id="0rzWzN3eRyqx4ulNen9h-40" style="edgeStyle=orthogonalEdgeStyle;rounded=0;orthogonalLoop=1;jettySize=auto;html=1;entryX=0.5;entryY=0;entryDx=0;entryDy=0;" parent="1" source="0rzWzN3eRyqx4ulNen9h-42" target="0rzWzN3eRyqx4ulNen9h-39" edge="1">
          <mxGeometry relative="1" as="geometry" />
        </mxCell>
        <mxCell id="0rzWzN3eRyqx4ulNen9h-41" style="edgeStyle=orthogonalEdgeStyle;rounded=0;orthogonalLoop=1;jettySize=auto;html=1;entryX=0;entryY=0.5;entryDx=0;entryDy=0;" parent="1" source="0rzWzN3eRyqx4ulNen9h-42" target="0rzWzN3eRyqx4ulNen9h-38" edge="1">
          <mxGeometry relative="1" as="geometry">
            <Array as="points">
              <mxPoint x="1147.5" y="1505" />
              <mxPoint x="1147.5" y="1444" />
            </Array>
          </mxGeometry>
        </mxCell>
        <mxCell id="0rzWzN3eRyqx4ulNen9h-42" value="" style="html=1;whiteSpace=wrap;aspect=fixed;shape=isoRectangle;rotation=90;direction=west;" parent="1" vertex="1">
          <mxGeometry x="1254.83" y="1494" width="33.34" height="20" as="geometry" />
        </mxCell>
        <mxCell id="0rzWzN3eRyqx4ulNen9h-43" value="[区間⑬終了条件未達成]" style="text;html=1;align=center;verticalAlign=middle;whiteSpace=wrap;rounded=0;fontSize=14;" parent="1" vertex="1">
          <mxGeometry x="1117.53" y="1509.5" width="150" height="20" as="geometry" />
        </mxCell>
        <mxCell id="0rzWzN3eRyqx4ulNen9h-44" style="edgeStyle=orthogonalEdgeStyle;rounded=0;orthogonalLoop=1;jettySize=auto;html=1;entryX=0.962;entryY=0.496;entryDx=0;entryDy=0;entryPerimeter=0;" parent="1" source="0rzWzN3eRyqx4ulNen9h-38" target="0rzWzN3eRyqx4ulNen9h-42" edge="1">
          <mxGeometry relative="1" as="geometry" />
        </mxCell>
        <mxCell id="0rzWzN3eRyqx4ulNen9h-46" value="[区間⑬終了条件達成]" style="text;html=1;align=center;verticalAlign=middle;whiteSpace=wrap;rounded=0;fontSize=14;strokeColor=#FFCC99;fillColor=light-dark(#FFCC99,var(--ge-dark-color, #121212));" parent="1" vertex="1">
          <mxGeometry x="1196.5000000000002" y="1539" width="150" height="20" as="geometry" />
        </mxCell>
        <mxCell id="0rzWzN3eRyqx4ulNen9h-59" value="進行方向調整" style="rounded=1;whiteSpace=wrap;html=1;fontSize=16;" parent="1" vertex="1">
          <mxGeometry x="458.3" y="1420" width="120" height="40" as="geometry" />
        </mxCell>
        <mxCell id="0rzWzN3eRyqx4ulNen9h-68" style="edgeStyle=orthogonalEdgeStyle;rounded=0;orthogonalLoop=1;jettySize=auto;html=1;" parent="1" source="0rzWzN3eRyqx4ulNen9h-60" target="kD3-Drgtkmj37213V6Fg-76" edge="1">
          <mxGeometry relative="1" as="geometry" />
        </mxCell>
        <mxCell id="0rzWzN3eRyqx4ulNen9h-60" value="区間切り替え" style="rounded=1;whiteSpace=wrap;html=1;fontSize=16;" parent="1" vertex="1">
          <mxGeometry x="458.3" y="1580" width="120" height="40" as="geometry" />
        </mxCell>
        <mxCell id="0rzWzN3eRyqx4ulNen9h-61" style="edgeStyle=orthogonalEdgeStyle;rounded=0;orthogonalLoop=1;jettySize=auto;html=1;entryX=0.5;entryY=0;entryDx=0;entryDy=0;" parent="1" source="0rzWzN3eRyqx4ulNen9h-63" target="0rzWzN3eRyqx4ulNen9h-60" edge="1">
          <mxGeometry relative="1" as="geometry" />
        </mxCell>
        <mxCell id="0rzWzN3eRyqx4ulNen9h-62" style="edgeStyle=orthogonalEdgeStyle;rounded=0;orthogonalLoop=1;jettySize=auto;html=1;entryX=0;entryY=0.5;entryDx=0;entryDy=0;" parent="1" source="0rzWzN3eRyqx4ulNen9h-63" target="0rzWzN3eRyqx4ulNen9h-59" edge="1">
          <mxGeometry relative="1" as="geometry">
            <Array as="points">
              <mxPoint x="394.3" y="1501" />
              <mxPoint x="394.3" y="1440" />
            </Array>
          </mxGeometry>
        </mxCell>
        <mxCell id="0rzWzN3eRyqx4ulNen9h-63" value="" style="html=1;whiteSpace=wrap;aspect=fixed;shape=isoRectangle;rotation=90;direction=west;" parent="1" vertex="1">
          <mxGeometry x="501.62999999999994" y="1490" width="33.34" height="20" as="geometry" />
        </mxCell>
        <mxCell id="0rzWzN3eRyqx4ulNen9h-64" value="[区間⑦終了条件達成]" style="text;html=1;align=center;verticalAlign=middle;whiteSpace=wrap;rounded=0;fontSize=14;strokeColor=#FFCC99;fillColor=light-dark(#FFCC99,var(--ge-dark-color, #121212));" parent="1" vertex="1">
          <mxGeometry x="446.00000000000006" y="1535" width="150" height="20" as="geometry" />
        </mxCell>
        <mxCell id="0rzWzN3eRyqx4ulNen9h-65" value="[区間⑦終了条件未達成]" style="text;html=1;align=center;verticalAlign=middle;whiteSpace=wrap;rounded=0;fontSize=14;" parent="1" vertex="1">
          <mxGeometry x="364.33" y="1505.5" width="150" height="20" as="geometry" />
        </mxCell>
        <mxCell id="0rzWzN3eRyqx4ulNen9h-66" style="edgeStyle=orthogonalEdgeStyle;rounded=0;orthogonalLoop=1;jettySize=auto;html=1;entryX=0.962;entryY=0.496;entryDx=0;entryDy=0;entryPerimeter=0;" parent="1" source="0rzWzN3eRyqx4ulNen9h-59" target="0rzWzN3eRyqx4ulNen9h-63" edge="1">
          <mxGeometry relative="1" as="geometry" />
        </mxCell>
        <mxCell id="0rzWzN3eRyqx4ulNen9h-70" style="edgeStyle=orthogonalEdgeStyle;rounded=0;orthogonalLoop=1;jettySize=auto;html=1;entryX=0.557;entryY=-0.013;entryDx=0;entryDy=0;entryPerimeter=0;" parent="1" source="DjXo14qDJdDYDq_xt4h0-61" target="0rzWzN3eRyqx4ulNen9h-27" edge="1">
          <mxGeometry relative="1" as="geometry">
            <Array as="points">
              <mxPoint x="625" y="2047" />
              <mxPoint x="625" y="1400" />
              <mxPoint x="907" y="1400" />
            </Array>
          </mxGeometry>
        </mxCell>
      </root>
    </mxGraphModel>
  </diagram>
</mxfile>
